<?xml version="1.0" encoding="UTF-8" standalone="no"?>
<svg
   viewBox="0 0 1576 1426"
   fill="none"
   stroke="#fff"
   version="1.1"
   id="svg37"
   sodipodi:docname="xspool-vector-c.svg"
   inkscape:version="1.3.2 (091e20e, 2023-11-25)"
   xmlns:inkscape="http://www.inkscape.org/namespaces/inkscape"
   xmlns:sodipodi="http://sodipodi.sourceforge.net/DTD/sodipodi-0.dtd"
   xmlns="http://www.w3.org/2000/svg"
   xmlns:svg="http://www.w3.org/2000/svg">
  <defs
     id="defs37" />
  <sodipodi:namedview
     id="namedview37"
     pagecolor="#505050"
     bordercolor="#eeeeee"
     borderopacity="1"
     inkscape:showpageshadow="0"
     inkscape:pageopacity="0"
     inkscape:pagecheckerboard="0"
     inkscape:deskcolor="#505050"
     inkscape:zoom="0.42623822"
     inkscape:cx="1354.8761"
     inkscape:cy="985.36446"
     inkscape:window-width="1920"
     inkscape:window-height="1027"
     inkscape:window-x="1080"
     inkscape:window-y="25"
     inkscape:window-maximized="1"
     inkscape:current-layer="svg37" />
  <path
     d="m201 68 1 1c209-2 418 0 627-1 23 3 67-12 67 23-29-11-64-2-95-5H298c-33 1-67-2-99 2l1 1c8 0 17-2 25-1 216-2 436-2 652 0 12-2 23 6 19 19H224c-2 2-5 1-8 1-65 2-120 63-119 127 2 323 2 649 0 972-1 64 54 125 119 127 3 1 6-1 8 1h1092c2-2 5-1 8-1 65-2 120-63 119-127-2-323-2-649 0-972 1-64-54-125-119-127-3-1-6 1-8-1h-155c-2-3-2-8 0-11 1-8 12-8 19-8 44-2 91-2 135 0h1c1-2 6 1 7-2h-84c-26 3-55-6-79 5 3-38 52-18 78-23 33 1 67-1 100 1l1-1c-8-1-16 0-24-2-44 2-91 2-135 0-22 0-38 2-58 0-2 2-6 2-8 0h-1c-2 2-6 2-8 0h-1c-3 2-9 2-12 0h-1c-41 2-85 2-126 0h-1c-1 1-5 2-6 0h-1c-2 2-8 2-10 0h-1c-2 2-6 2-8 0h-1c-1 1-5 2-6 0-18 2-34-1-55 0-216 2-435 2-651 0-8 2-16 1-24 2m922 78v2h36c3 14-17 6-25 8H898c-1-2-2-6 0-8h43v-2h-43v-28c-2-2-2-7 0-9v-2c-2-3-2-8 0-11-1-10 0-22-11-27 93-2 190-2 283 0-14 5-11 21-11 33v44h-36m-227-37c-1 3 1 6-1 8l-7-8h8m272 0c-2 3-5 6-8 7-2-6 2-8 8-7m-944 9v2h1c216-2 436-2 652 0h19c-1 14 2 28-1 42-5 9-13 17-18 26 8-8 18-18 21-30 86-2 175-2 261 0 2 12 12 23 21 30-6-10-16-18-19-30-2-2-2-8 0-10v-2c-2-8-2-18 0-26h19c44-2 91-2 135 0h1c0-2 4 0 4-2h-158c12-16 36-5 53-8 56 4 118-12 166 19 44 26 64 76 59 126v925c10 66-31 137-98 149-39 7-80 1-120 3H235c-66 7-130-47-134-113-2-328-1-657-1-985-2-66 57-125 123-124h617c18 3 42-8 54 8H224Z"
     id="path1" />
  <path
     d="M876 66H225c216 2 435 2 651 0Zm61 0h-6c1 2 5 1 6 0Zm9 0h-8c2 2 6 2 8 0Zm11 0h-10c2 2 8 2 10 0Zm7 0h-6c1 2 5 1 6 0Zm127 0H965c41 2 85 2 126 0Zm13 0h-12c3 2 9 2 12 0Zm9 0h-8c2 2 6 2 8 0Zm9 0h-8c2 2 6 2 8 0Zm193 0h-135c44 2 91 2 135 0ZM58 211l1 1c9-72 72-134 143-143l-1-1c-72 9-134 71-143 143Z"
     id="path2" />
  <path
     d="M202 69c-71 9-134 71-143 143-2 339-2 679 0 1018 9 72 72 134 143 143 378 2 758 2 1136 0 72-9 134-72 143-143 2-334 0-670 1-1005-2-1-1-4-1-6v-7c-9-72-72-134-143-143-33-2-67 0-100-1-26 5-75-15-78 23 24-11 53-2 79-5h84c1 0 4-1 4 1 74 3 139 73 137 147v974c2 70-55 135-123 146-94 5-189 1-284 2H484c-95-1-191 3-285-2-68-11-125-76-123-146V234c-2-70 55-135 123-146 32-4 66-1 99-2h503c31 3 66-6 95 5 0-35-44-20-67-23-209 1-418-1-627 1Z"
     id="path3" />
  <path
     d="M898 96v50h261v-44c0-12-3-28 11-33-93-2-190-2-283 0 11 5 10 17 11 27Zm440-27c71 9 134 71 143 143l1-1c-9-72-71-134-143-143l-1 1Zm-22 19h10l1-1c0-2-3-1-4-1-1 3-6 0-7 2Z"
     id="path4" />
  <path
     d="M200 89c-67 11-125 75-122 145v974c-3 70 56 135 123 145 8 1 17 2 24 1h1090c7 1 16 0 24-1 68-10 126-75 123-145V234c3-74-62-143-136-146h-146c-7 0-18 0-19 8v11h155c3 1 6-1 8 1 65 2 120 63 119 127v972c1 64-54 125-119 127-2 2-5 1-8 1H224c-3-1-6 1-8-1-65-2-120-63-119-127V235c-1-64 54-125 119-127 2-2 5-1 8-1h672c4-13-7-21-19-19H225c-8-1-17 1-25 1Z"
     id="path5" />
  <path
     d="M225 88h652c-216-2-436-2-652 0Zm955 0h135c-44-2-91-2-135 0Zm146 0c74 3 139 72 136 146h2c2-74-63-144-137-147l-1 1ZM76 234h2c-3-70 55-134 122-145l-1-1C131 99 74 164 76 234Zm822-127V96c-2 3-2 8 0 11Zm263 0V96c-2 3-2 8 0 11Zm-945 1c3 0 6 1 8-1-3 0-6-1-8 1Zm1108 0c-2-2-5 0-8-1 2 2 5 0 8 1Zm-428 1h-8l7 8c2-2 0-5 1-8Zm2 9v-9c-2 2-2 7 0 9Zm270-9c-6-1-10 1-8 7 3-1 6-4 8-7Z"
     id="path6" />
  <path
     d="M1320 118c2 0 5-1 6 1 57 3 106 56 106 113v880c-3 63 15 137-38 182-50 47-125 25-189 30H325c-63-4-138 16-184-36-49-48-29-123-33-186 1-293-1-586 1-879 4-57 58-106 115-105h670c-12-16-36-5-54-8H223c-66-1-125 58-123 124 0 328-1 657 1 985 4 66 68 120 134 113h987c40-2 81 4 120-3 67-12 108-83 98-149V255c5-50-15-100-59-126-48-31-110-15-166-19-17 3-41-8-53 8h158Z"
     id="path7" />
  <path
     d="m1326 119-3 1c58 2 109 56 107 115 2 323 2 649 0 972 2 58-48 112-106 115H217c-58-2-110-56-107-115-2-323-2-649 0-972-3-61 53-117 114-115v-2c-57-1-111 48-115 105-2 293 0 586-1 879 4 63-16 138 33 186 46 52 121 32 184 36h880c64-5 139 17 189-30 53-45 35-119 38-182V232c0-57-49-110-106-113Z"
     id="path8" />
  <path
     d="M1316 120h7l3-1c-1-2-4-1-6-1 0 2-4 0-4 2Zm-1091 0h652c-216-2-436-2-652 0Zm955 0h135c-44-2-91-2-135 0Z"
     id="path9" />
  <path
     d="M110 235v972c-3 59 49 113 107 115h1107c58-3 108-57 106-115V235c2-59-49-113-107-115h-162v38c3 12 13 20 19 30-9-7-19-18-21-30H898c-3 12-13 22-21 30 5-9 13-17 18-26 3-14 0-28 1-42H224c-61-2-117 54-114 115m584-1v201c6 28-12 58-42 58H230c-18-1-36-13-40-31l-2-10V247c-4-30 25-54 54-48h411c20-1 38 16 41 35Z"
     id="path10" />
  <path
     d="M1161 146v-26c-2 8-2 18 0 26Zm-220 2h182v-2H941v2Zm-43 8v-8c-2 2-1 6 0 8Zm0 0h236c8-2 28 6 25-8H898v8Z"
     id="path11" />
  <path
     d="M1161 158v-10c-2 2-2 8 0 10Zm-263 0h261c-86-2-175-2-261 0ZM188 452l2-1v-1c-2-69-2-140 0-209-2-22 18-42 40-40 140-2 282-2 422 0h1v-2H242c-29-6-58 18-54 48v205Zm465-251c20-2 37 16 40 34l1-1c-3-19-21-36-41-35v2Z"
     id="path12" />
  <path
     d="M230 201h422c-140-2-282-2-422 0Z"
     id="path13" />
  <path
     d="M190 241v210l1 10c9 37 52 30 82 30h338c30 1 73 6 81-31 2-75 0-150 1-225-3-18-20-36-40-34H230c-22-2-42 18-40 40m16 231c-15-20-5-49-8-73V236c0-5 3-10 5-14l8-8 6-3c47-5 97-1 145-2h296c33 6 27 45 27 71v99c-3 30 7 65-7 92-22 22-58 8-87 12H294c-29-4-65 10-88-11Z"
     id="path14" />
  <path
     d="M217 211v4c34-7 72-1 107-3h333c2-1-3-1-4-1 1-2 4 0 5-2H362c-48 1-98-3-145 2m435-1c-140 2-281 0-422 1 140-2 281 0 422-1Z"
     id="path15" />
  <path
     d="M657 212c30 5 24 41 24 64v177c-2 31-39 27-62 26H265c-24 0-60 6-64-25-3 7 3 12 5 18 23 21 59 7 88 11h297c29-4 65 10 87-12 14-27 4-62 7-92v-99c0-26 6-65-27-71-1 2-4 0-5 2 1 0 6 0 4 1Zm-5-2c-141 1-282-1-422 1 141-1 282 1 422-1ZM56 235c2 323 2 649 0 972 2 8 1 16 2 24l1-1c-2-339-2-679 0-1018l-1-1c-1 8 0 16-2 24Zm155-21-8 8c-2 4-5 9-5 14 2 0 0 4 2 4 0-4 1-12 4-12 3-5 8-10 13-13v-4l-6 3Zm1270-2v7c2 1 1 4 1 6-1 335 1 671-1 1005l1 1c1-8 0-16 2-24-2-323-2-649 0-972-2-8-1-16-2-24l-1 1Z"
     id="path16" />
  <path
     d="M217 215c-5 3-10 8-13 13-7 35-1 74-3 111v115c4 31 40 25 64 25h354c23 1 60 5 62-26V276c0-23 6-59-24-64H324c-35 2-73-4-107 3m456 237-1 3c-8 28-45 12-67 16H272c-22-2-60 10-63-21V241l1-5c11-28 51-11 75-16h367c31 3 19 41 21 63v169ZM203 222l8-8-8 8Zm1279 3c0-2 1-5-1-6 0 2-1 5 1 6Z"
     id="path17" />
  <path
     d="M210 236h1c14-26 52-9 77-14h364v-2H285c-24 5-64-12-75 16Zm442-14c10-1 20 9 19 19 2 69 2 140 0 209v1l2 1V283c-2-22 10-60-21-63v2Z"
     id="path18" />
  <path
     d="M211 236v165c4 22-12 59 15 68h426c9 1 18-6 19-15V241c1-10-9-20-19-19H288c-25 5-63-12-77 14m396 105c2 2 2 8 0 10-1 22-22 42-44 44H404c-43-5-107 18-126-33-12-27 10-63 40-65 74-2 148 0 222-1 30-5 66 12 67 45ZM198 236v163c3 24-7 53 8 73-2-6-8-11-5-18V339c2-37-4-76 3-111-3 0-4 8-4 12-2 0 0-4-2-4m2 5v210c-2-69-2-141 0-210ZM76 1208h2v-1c-2-323-2-649 0-972v-1h-2v974Z"
     id="path19" />
  <path
     d="M693 235c-1 75 1 150-1 225-8 37-51 32-81 31H273c-30 0-73 7-82-30l-1 1c4 18 22 30 40 31 140-2 282-2 422 0 30 0 48-30 42-58V234l-1 1Zm769 0c2 323 2 649 0 972v1h2V234h-2v1ZM56 1207c2-323 2-649 0-972v972Zm22 0V235c-2 323-2 649 0 972Zm19 0c2-323 2-649 0-972v972Zm13 0V235c-2 323-2 649 0 972Zm1320 0c2-323 2-649 0-972v972Zm13 0V235c-2 323-2 649 0 972Z"
     id="path20" />
  <path
     d="M1462 1207c2-323 2-649 0-972v972Zm22 0V235c-2 323-2 649 0 972ZM209 241c2 69 2 140 0 209 3 31 41 19 63 21h333c22-4 59 12 67-16l-1-1c-1 9-10 16-19 15-141 2-285 2-426 0-27-9-11-46-15-68V236h-1l-1 5Zm-19 209V241c-2 69-2 140 0 209Zm10-209c-2 69-2 141 0 210V241Z"
     id="path21" />
  <path
     d="M209 450c2-69 2-140 0-209v209Zm462 0c2-69 2-140 0-209v209Zm-393-88 1-1c-1-4-3-7-2-11-2-2-2-7 0-9 2-39 46-48 79-43h122c37 4 80-10 111 11l6 6c25 28 4 76-32 79v1c22-2 43-22 44-44v-10c-1-33-37-50-67-45-74 1-148-1-222 1-30 2-52 38-40 65Z"
     id="path22" />
  <path
     d="M277 341v9c-1 4 1 7 2 11 5 17 21 30 39 32h6c79 2 160 0 239 1 36-3 57-51 32-79l-6-6c-31-21-74-7-111-11H356c-33-5-77 4-79 43m288 44H317c-16-3-30-17-32-33 0-6-1-12 1-17 5-16 21-29 38-29h235c47-1 52 73 6 79Z"
     id="path23" />
  <path
     d="M286 335c0 4 1 12-1 17 2 16 16 30 32 33 1-2 5-1 7-1-4-2-10 0-13-4-36-13-26-72 13-70v-4c-17 0-33 13-38 29Zm38-25h1c2-2 7-2 9 0h2c73-2 148-2 221 0h2c3-2 0-2 0-4H324v4m10-3c-2 2-6 1-9 1 2-2 6 0 9-1m223 0c-72 2-147 0-220 1 72-2 147 0 220-1Z"
     id="path24" />
  <path
     d="M559 310c18-1 34 15 35 33 3 19-13 35-30 39 2 2-4 1-5 1 1 2 5 0 6 2 46-6 41-80-6-79 0 2 3 2 0 4Zm-225-3c-3 1-7-1-9 1 3 0 7 1 9-1Zm223 0c-73 1-148-1-220 1 73-1 148 1 220-1Z"
     id="path25" />
  <path
     d="M325 310h9c-2-2-7-2-9 0Zm11 0h221c-73-2-148-2-221 0Zm259 5-6-6 6 6Z"
     id="path26" />
  <path
     d="M311 380c41 5 83 1 125 2h128c17-4 33-20 30-39-1-18-17-34-35-33H324c-39-2-49 57-13 70m262-58c3 0 5 4 7 6 2 3 5 7 5 11l1 3c3 38-42 33-68 32-67-1-134 1-200-1-29-5-28-52 2-55h243l10 4Z"
     id="path27" />
  <path
     d="M586 342c-3 2 1 6-2 8-6 33-48 19-73 22H319c-28-5-27-49 1-53v-1c-30 3-31 50-2 55 66 2 133 0 200 1 26 1 71 6 68-32Z"
     id="path28" />
  <path
     d="M320 319h242l1-1H320v1Z"
     id="path29" />
  <path
     d="M562 319c10 2 21 11 22 22l1-2c0-4-3-8-5-11l-7-6-10-4-1 1Z"
     id="path30" />
  <path
     d="M584 350v-9c-1-11-12-20-22-22H320c-28 4-29 48-1 53h192c25-3 67 11 73-22Z"
     id="path31" />
  <path
     d="M580 328c-2-2-4-6-7-6l7 6Zm-295 24c2-5 1-13 1-17-2 5-1 11-1 17Zm299-11v9c3-2-1-6 2-8l-1-3-1 2Zm-307 9v-9c-2 2-2 7 0 9Zm330 1c2-2 2-8 0-10v10Zm-329 11c19 51 83 28 126 33h159v-1c-79-1-160 1-239-1-1 1-5 2-6 0-18-2-34-15-39-32l-1 1Z"
     id="path32" />
  <path
     d="M317 385h248c-1-2-5 0-6-2 1 0 7 1 5-1H436c-42-1-84 3-125-2 3 4 9 2 13 4-2 0-6-1-7 1m240-2c-76 2-155 0-232 1 76-2 155 0 232-1Z"
     id="path33" />
  <path
     d="M557 383c-77 1-156-1-232 1 77-1 156 1 232-1Zm-233 10h-6c1 2 5 1 6 0Zm-136 59 2 10 1-1-1-10-2 1Zm483 2 1 1 1-3-2-1v3Zm-19 15H226c141 2 285 2 426 0Zm-422 24h422c-140-2-282-2-422 0Zm-31 861 2-1c-67-10-126-75-123-145h-2c-2 70 55 135 123 146Zm1140-1 2 1c68-11 125-76 123-146h-2c3 70-55 135-123 145Z"
     id="path34" />
  <path
     d="M58 1231c9 72 71 134 143 143l1-1c-71-9-134-71-143-143l-1 1Zm1280 142 1 1c72-9 134-71 143-143l-1-1c-9 71-71 134-143 143Zm-1114-38c-2-2-5 0-8-1 2 2 5 0 8 1Zm1092 0c3 0 6 1 8-1-3 0-6-1-8 1Zm-1117 19c94 5 190 1 285 2h573c95-1 190 3 284-2l-2-1a118573 118573 0 0 1-1114 1c-7 1-16 0-24-1l-2 1Z"
     id="path35" />
  <path
     d="M1315 1354H225c362 2 728 2 1090 0Zm-1114 20c8 1 16 0 24 2 362-2 728-2 1090 0 8-2 16-1 24-2l-1-1c-378 2-758 2-1136 0l-1 1Z"
     id="path36" />
  <path
     d="M225 1376h1090c-362-2-728-2-1090 0Z"
     id="path37" />
  <g
     id="g37"
     transform="translate(-422.29906,79.7676)">
    <path
       id="path1-0"
       style="fill:#ffffff;stroke:none;stroke-width:7.76759"
       class=""
       d="m 1048.7656,592.69727 c -5.2922,0.17654 -10.4083,1.68685 -15.6179,2.48519 -84.01504,15.60477 -168.03443,31.1883 -252.05392,46.7677 -10.03831,2.10744 -18.751,9.60839 -22.28382,19.24547 -2.14935,5.69564 -2.52893,12.01133 -1.18576,17.94177 7.31914,39.26786 14.51229,78.55912 21.78167,117.83626 8.67043,46.96868 17.33856,93.93825 26.03012,140.90274 2.67657,11.49387 11.69187,21.28426 22.96695,24.81178 3.19694,1.03514 6.54226,1.57672 9.89589,1.72393 0.64347,0.0503 1.60748,-0.005 2.36914,0.11133 5.1632,0.69948 9.35483,5.86113 8.66332,11.08555 -0.34825,2.6743 -1.01778,5.298 -1.25926,7.98892 -0.34253,3.03556 -0.47174,6.29352 -0.33765,9.2224 0.0617,1.35402 0.172,2.759 0.3533,4.18361 1.02053,8.58518 4.53388,16.94948 10.43048,23.32888 2.41172,2.6743 5.19703,5.009 8.24746,6.9231 0.23915,0.1524 0.90617,0.5523 1.32162,0.7871 4.1564,2.3888 8.81035,3.8506 13.55924,4.4453 0.38673,0.05 1.16384,0.1284 1.70118,0.1719 7.35744,0.5834 14.87411,-1.0386 21.3125,-4.6543 2.18435,-1.1575 4.75623,-1.651 7.18001,-1.0321 3.90191,0.8768 7.17704,4.1415 7.91386,8.0949 2.73408,9.4399 8.79637,17.9397 17.06433,23.3083 2.40686,1.5816 4.98153,2.9054 7.66406,3.9531 0.55715,0.2089 1.40799,0.5315 2.09763,0.7511 5.15033,1.7313 10.62968,2.3277 16.04363,2.0535 6.86173,-0.2562 13.66476,-2.111 19.64643,-5.4981 7.71723,-4.282 14.10817,-10.5754 19.55439,-17.4491 2.7892,-3.4415 5.5363,-7.1523 8.3303,-10.6876 3.4506,-4.426 6.8904,-8.8606 10.3354,-13.2909 1.5737,10.6733 2.7995,21.3944 4.4041,32.0632 1.8773,12.6786 5.2318,25.3337 11.6217,36.5311 5.2355,9.2711 12.7618,17.0498 21.1048,23.5791 9.932,7.8717 20.6646,14.6776 30.4476,22.7426 8.1669,11.099 10.9644,25.9091 7.5234,39.2402 -0.3037,1.8 1.0375,3.6056 2.7815,4.0196 4.3898,1.909 8.9097,3.5204 13.5271,4.7851 1.2565,0.3456 2.75,0.7211 4.1094,1.0352 1.2342,0.2774 2.7026,0.5912 4.0385,0.8363 7.3178,1.4059 14.7928,1.7617 22.2301,1.5858 8.0013,-0.1183 15.9965,-0.7862 23.8881,-2.1245 3.9146,-0.6531 8.0047,-1.5 11.939,-2.4561 9.9323,-2.4114 19.6393,-5.7136 29.0566,-9.6775 9.2734,-3.9102 18.4823,-8.5825 27.1905,-13.677 3.5844,-2.0746 7.325,-4.4128 10.7861,-6.6218 3.0732,-1.9111 5.8956,-4.1832 8.5969,-6.5836 13.3622,-11.5148 25.6593,-24.4185 35.4734,-39.1215 0.9476,-1.4218 1.9873,-3.0458 2.8781,-4.5068 6.5847,-10.796 11.7935,-22.5797 14.1822,-35.0448 0.7281,-4.053 1.224,-8.1778 1.097,-12.3001 -0.075,-1.4369 -1.305,-2.4356 -2.1426,-3.4898 -1.9256,-2.2118 -3.6088,-4.6234 -5.3167,-7.0044 -7.0613,-10.109 -12.7279,-21.1199 -17.7613,-32.3552 -3.7096,-8.4461 -7.0659,-17.06243 -9.6978,-25.90812 -3.3954,-12.40689 -5.3157,-25.14646 -7.4128,-37.81877 -4.5892,-29.15877 -8.1113,-58.46961 -11.7661,-87.75712 -2.6953,-21.67828 -5.2325,-43.37914 -8.3629,-65.00019 -0.2776,-1.83532 -0.576,-3.6677 -0.9276,-5.49045 -0.096,-0.45578 -0.2546,-1.26988 -0.3992,-1.85987 -0.8669,-3.85155 -2.4891,-7.48728 -4.2228,-11.01751 -7.4089,-14.72032 -20.5099,-26.53253 -36.012,-32.17502 -3.2405,-1.09073 -6.6254,-1.63801 -9.9519,-2.39096 -1.7153,-0.3415 -3.6546,-0.74812 -5.3927,-1.08824 -13.3572,-2.59916 -26.7756,-4.8753 -40.1572,-7.33918 -15.4769,-2.81031 -30.9402,-5.74641 -46.2275,-9.46906 -1.5025,-0.0331 -2.7849,-1.37802 -2.7382,-2.88086 -6.3433,-34.28091 -12.6287,-68.5735 -19.0638,-102.8367 -2.5242,-10.66969 -11.1078,-19.63822 -21.6514,-22.64141 -1.3986,-0.40503 -2.8224,-0.72621 -4.2614,-0.94962 -0.2881,-0.0443 -1.0149,-0.13826 -1.4727,-0.1875 -1.2167,-0.11802 -2.4395,-0.17712 -3.6621,-0.15625 z m 0.5703,7.04882 c 10.5297,-0.0992 20.653,7.51278 23.3287,17.72318 1.0998,4.31161 1.6863,8.73104 2.5861,13.08567 15.8437,84.46928 31.6859,168.93884 47.5305,253.40795 -4.8304,8.39597 -10.4921,16.27631 -15.4101,24.61914 -0.9438,0.50088 -2.1324,0.59245 -3.0195,-0.084 -3.2014,-2.18185 -6.4603,-4.29849 -9.5864,-6.59635 -6.4656,-4.63907 -12.5884,-9.74716 -18.4086,-15.16402 -19.3202,-17.68538 -36.8714,-37.23978 -56.7699,-54.30286 -2.4963,-2.12774 -5.2139,-4.35215 -7.7703,-6.33716 -7.209,-5.60655 -14.95344,-10.60845 -23.39257,-14.15821 -7.50155,-3.23131 -15.26641,-5.67185 -23.23828,-7.22656 -0.58633,-0.1122 -1.34199,-0.25696 -1.97374,-0.36371 -11.62033,-2.01303 -23.68264,-2.32596 -35.22743,0.33441 -1.24685,0.31166 -2.44174,0.60852 -3.59571,0.96485 -7.51427,2.23232 -14.6861,6.08907 -20.04072,11.8945 -5.08264,5.46366 -8.26787,12.52502 -9.596,19.83011 -0.0596,0.38197 -0.19894,1.14084 -0.26172,1.66992 -0.88239,5.9483 0.56671,12.11774 3.69675,17.22002 4.87682,8.12812 11.97159,14.56766 18.89452,20.915 13.01535,11.61932 26.53454,22.69115 38.92034,35.00038 2.79307,2.76558 5.6345,5.50159 8.20309,8.47641 2.74146,3.85864 2.30541,9.71546 -1.24214,12.93651 -1.88737,1.98295 -4.63681,2.78081 -7.28073,3.07912 -37.74648,6.92382 -75.48489,13.89619 -113.24623,20.73574 -11.26309,1.52243 -23.10416,-4.86848 -27.98599,-15.13735 -2.488,-5.01531 -2.86058,-10.69003 -3.99177,-16.09062 C 795.10756,843.1567 779.76322,760.1338 764.3775,677.119 c -2.26701,-10.00577 2.85656,-21.1622 11.93561,-25.94815 3.85684,-2.20697 8.33805,-2.72934 12.63631,-3.49149 85.55039,-15.87578 171.09821,-31.76601 256.64628,-47.65397 1.2387,-0.18101 2.4898,-0.24798 3.7402,-0.2793 z m 55.0039,130.60743 c 14.3941,2.99643 28.7815,5.91722 43.2408,8.50174 16.9489,3.1091 33.9501,5.94609 50.8217,9.45919 3.3333,0.74296 6.5353,1.99566 9.5109,3.66781 13.4629,7.23499 24.1585,19.69196 28.8033,34.2972 1.2396,4.79671 1.7483,9.73836 2.5113,14.62371 2.2204,15.93639 4.0311,31.92653 6.0361,47.89118 3.6643,29.8119 7.2911,59.59871 11.7674,89.30449 2.2086,14.34304 4.4822,28.63675 7.7613,42.80372 1.7881,7.62641 4.3438,15.05185 7.1359,22.36284 3.2112,8.2865 6.9583,16.3624 11.1731,24.1858 0.6575,1.1832 1.4092,2.5903 2.1363,3.8414 4.274,7.5871 9.1117,14.8416 14.2544,21.8646 0.4546,0.7078 1.099,1.3678 1.4341,2.106 -1.5415,13.5084 -6.5393,26.4366 -13.398,38.1088 -9.8342,16.8111 -23.1946,31.3063 -37.8879,43.9836 -2.3266,1.9178 -4.5047,4.0531 -7.0428,5.6893 -1.1416,0.4621 -2.2317,1.0154 -3.234,1.7339 -21.1196,13.333 -44.1881,24.006 -68.6891,29.281 -18.6207,3.9845 -38.1772,4.7209 -56.7794,0.2334 -3.7468,-0.8935 -7.461,-1.9156 -11.1882,-2.887 0.3858,-4.9617 0.9245,-9.9324 0.6543,-14.916 -0.063,-1.3631 -0.1955,-2.9504 -0.4002,-4.3904 -1.1759,-8.451 -4.5168,-16.6281 -9.7365,-23.3889 -1.6482,-2.058 -3.9048,-3.5044 -6.0381,-5.0087 -2.3984,-1.6311 -4.8775,-3.14 -7.2646,-4.7881 -11.2082,-7.3257 -22.3368,-15.4938 -30.9483,-25.9562 -8.8895,-10.6752 -15.0413,-23.7542 -16.8567,-37.5746 -0.7878,-5.9012 -1.0675,-11.8105 -2.0116,-17.6924 -0.8325,-5.8028 -1.904,-11.5425 -3.2009,-17.223 -0.6757,-2.925 -1.4434,-6.0317 -2.2677,-9.0004 -8.1435,-29.66212 -22.8096,-57.51227 -42.68144,-80.99285 -7.79629,-9.1622 -16.07494,-17.91143 -24.69113,-26.30552 -8.31917,-8.09932 -17.02318,-15.79272 -25.93768,-23.2287 -7.15707,-6.05546 -14.56159,-11.87649 -21.01461,-18.70406 -4.43822,-4.81682 -8.12316,-10.6971 -8.93818,-17.31036 -1.05596,-8.55425 2.5081,-17.28212 8.54533,-23.29614 5.3533,-5.46278 12.63713,-8.61503 20.0374,-10.14963 8.81688,-1.83958 17.94331,-1.58952 26.83007,-0.40481 10.97994,1.50569 21.74482,4.63552 31.80802,9.28013 8.61578,4.04689 16.42212,9.59778 23.75162,15.62712 11.7498,9.59923 22.4061,20.42869 33.1701,31.09504 7.0689,7.04331 14.0736,14.15472 21.3451,20.99064 2.9656,2.77786 6.1147,5.68109 9.1621,8.36133 7.3397,6.3707 14.9208,12.59452 23.4688,17.29101 3.6424,2.01531 7.5368,3.52522 11.5253,4.69829 5.947,1.83691 12.0294,3.23235 18.1837,4.16304 0.5987,0.079 1.412,0.20879 2.0427,0.28725 7.94,1.05999 15.9827,1.35286 23.9788,0.869 0.5352,-0.0424 1.2102,-0.0751 1.7541,-0.12558 5.9034,-0.4803 11.8077,-1.26418 17.5564,-2.70126 1.9472,-0.86774 2.6863,-3.69657 1.2544,-5.33753 -0.9204,-1.22388 -2.6055,-1.66546 -4.0425,-1.2012 -10.6112,2.17518 -21.4977,2.95259 -32.312,2.37345 -6.2637,-0.29305 -12.4721,-1.21595 -18.7095,-1.81361 -2.8955,-0.30786 -5.7909,-0.61595 -8.6865,-0.92278 5.2847,-8.10648 10.924,-15.98771 15.8496,-24.32407 0.8475,-1.45546 1.6355,-2.82824 2.4456,-4.35242 1.9093,-3.58826 3.6879,-7.24722 5.3025,-10.97781 0.6056,-1.42402 1.2933,-3.05463 1.8832,-4.57848 0.7306,-1.85794 1.4195,-3.73206 2.0777,-5.61683 0.4086,-1.199 0.9047,-2.6777 1.2857,-3.89525 1.8966,-6.10866 3.4983,-12.32896 4.485,-18.65189 0.029,-2.49584 -3.142,-4.30684 -5.2599,-2.93255 -1.7339,1.24096 -3.3537,2.65069 -5.0648,3.92967 -3.7645,2.90936 -7.5388,5.80599 -11.3015,8.71798 -7.4344,-40.52416 -14.8702,-81.04809 -22.3047,-121.57226 0.9681,0.19922 1.9362,0.39844 2.9043,0.59766 z M 975.82422,932.99219 c 8.07837,11.38025 16.64068,22.48876 23.31241,34.78744 6.48957,11.67783 11.72467,24.03568 15.82037,36.74767 -5.8044,12.3406 -11.9229,24.716 -20.58218,35.346 -5.51847,6.8002 -12.38407,12.8294 -20.68565,15.9182 -12.58276,4.75 -27.70475,1.9808 -37.67089,-7.0898 -8.44271,-7.4624 -13.13776,-18.9274 -12.37375,-30.1685 0.0839,-2.4162 1.11099,-4.8107 2.96529,-6.3922 2.98843,-3.2005 5.93438,-6.6104 8.6519,-9.9418 12.81724,-15.77411 23.17274,-33.54067 30.56254,-52.47579 2.63358,-6.56194 5.23237,-13.13673 7.87691,-19.69411 0.70768,0.98763 1.41537,1.97526 2.12305,2.96289 z m -15.94727,13.49219 c -5.65496,11.14708 -10.90835,22.51849 -17.29982,33.27426 -4.49827,7.50311 -9.56858,14.68021 -15.29622,21.29776 -6.74544,7.7141 -14.51998,14.7114 -23.62374,19.5265 -4.93727,2.5732 -10.28817,4.5406 -15.85879,5.0708 -8.82862,0.6713 -17.84526,-2.9387 -23.81105,-9.4747 -6.59343,-6.8454 -9.87005,-16.49357 -9.61411,-25.9243 0.0288,-8.18521 2.19227,-16.19592 5.06212,-23.80595 1.05202,-3.7069 4.7339,-6.32001 8.53023,-6.46278 31.23342,-5.69419 62.46731,-11.3859 93.70045,-17.08167 -0.59636,1.19336 -1.19271,2.38672 -1.78907,3.58008 z" />
  </g>
</svg>
