<svg viewBox="0 0 1576 1426" xmlns="http://www.w3.org/2000/svg" fill="none" stroke="#fff">
   <path
      d="m201 68 1 1c209-2 418 0 627-1 23 3 67-12 67 23-29-11-64-2-95-5H298c-33 1-67-2-99 2l1 1c8 0 17-2 25-1 216-2 436-2 652 0 12-2 23 6 19 19H224c-2 2-5 1-8 1-65 2-120 63-119 127 2 323 2 649 0 972-1 64 54 125 119 127 3 1 6-1 8 1h1092c2-2 5-1 8-1 65-2 120-63 119-127-2-323-2-649 0-972 1-64-54-125-119-127-3-1-6 1-8-1h-155c-2-3-2-8 0-11 1-8 12-8 19-8 44-2 91-2 135 0h1c1-2 6 1 7-2h-84c-26 3-55-6-79 5 3-38 52-18 78-23 33 1 67-1 100 1l1-1c-8-1-16 0-24-2-44 2-91 2-135 0-22 0-38 2-58 0-2 2-6 2-8 0h-1c-2 2-6 2-8 0h-1c-3 2-9 2-12 0h-1c-41 2-85 2-126 0h-1c-1 1-5 2-6 0h-1c-2 2-8 2-10 0h-1c-2 2-6 2-8 0h-1c-1 1-5 2-6 0-18 2-34-1-55 0-216 2-435 2-651 0-8 2-16 1-24 2m922 78v2h36c3 14-17 6-25 8H898c-1-2-2-6 0-8h43v-2h-43v-28c-2-2-2-7 0-9v-2c-2-3-2-8 0-11-1-10 0-22-11-27 93-2 190-2 283 0-14 5-11 21-11 33v44h-36m-227-37c-1 3 1 6-1 8l-7-8h8m272 0c-2 3-5 6-8 7-2-6 2-8 8-7m-944 9v2h1c216-2 436-2 652 0h19c-1 14 2 28-1 42-5 9-13 17-18 26 8-8 18-18 21-30 86-2 175-2 261 0 2 12 12 23 21 30-6-10-16-18-19-30-2-2-2-8 0-10v-2c-2-8-2-18 0-26h19c44-2 91-2 135 0h1c0-2 4 0 4-2h-158c12-16 36-5 53-8 56 4 118-12 166 19 44 26 64 76 59 126v925c10 66-31 137-98 149-39 7-80 1-120 3H235c-66 7-130-47-134-113-2-328-1-657-1-985-2-66 57-125 123-124h617c18 3 42-8 54 8H224Z" />
   <path
      d="M876 66H225c216 2 435 2 651 0Zm61 0h-6c1 2 5 1 6 0Zm9 0h-8c2 2 6 2 8 0Zm11 0h-10c2 2 8 2 10 0Zm7 0h-6c1 2 5 1 6 0Zm127 0H965c41 2 85 2 126 0Zm13 0h-12c3 2 9 2 12 0Zm9 0h-8c2 2 6 2 8 0Zm9 0h-8c2 2 6 2 8 0Zm193 0h-135c44 2 91 2 135 0ZM58 211l1 1c9-72 72-134 143-143l-1-1c-72 9-134 71-143 143Z" />
   <path
      d="M202 69c-71 9-134 71-143 143-2 339-2 679 0 1018 9 72 72 134 143 143 378 2 758 2 1136 0 72-9 134-72 143-143 2-334 0-670 1-1005-2-1-1-4-1-6v-7c-9-72-72-134-143-143-33-2-67 0-100-1-26 5-75-15-78 23 24-11 53-2 79-5h84c1 0 4-1 4 1 74 3 139 73 137 147v974c2 70-55 135-123 146-94 5-189 1-284 2H484c-95-1-191 3-285-2-68-11-125-76-123-146V234c-2-70 55-135 123-146 32-4 66-1 99-2h503c31 3 66-6 95 5 0-35-44-20-67-23-209 1-418-1-627 1Z" />
   <path
      d="M898 96v50h261v-44c0-12-3-28 11-33-93-2-190-2-283 0 11 5 10 17 11 27Zm440-27c71 9 134 71 143 143l1-1c-9-72-71-134-143-143l-1 1Zm-22 19h10l1-1c0-2-3-1-4-1-1 3-6 0-7 2Z" />
   <path
      d="M200 89c-67 11-125 75-122 145v974c-3 70 56 135 123 145 8 1 17 2 24 1h1090c7 1 16 0 24-1 68-10 126-75 123-145V234c3-74-62-143-136-146h-146c-7 0-18 0-19 8v11h155c3 1 6-1 8 1 65 2 120 63 119 127v972c1 64-54 125-119 127-2 2-5 1-8 1H224c-3-1-6 1-8-1-65-2-120-63-119-127V235c-1-64 54-125 119-127 2-2 5-1 8-1h672c4-13-7-21-19-19H225c-8-1-17 1-25 1Z" />
   <path
      d="M225 88h652c-216-2-436-2-652 0Zm955 0h135c-44-2-91-2-135 0Zm146 0c74 3 139 72 136 146h2c2-74-63-144-137-147l-1 1ZM76 234h2c-3-70 55-134 122-145l-1-1C131 99 74 164 76 234Zm822-127V96c-2 3-2 8 0 11Zm263 0V96c-2 3-2 8 0 11Zm-945 1c3 0 6 1 8-1-3 0-6-1-8 1Zm1108 0c-2-2-5 0-8-1 2 2 5 0 8 1Zm-428 1h-8l7 8c2-2 0-5 1-8Zm2 9v-9c-2 2-2 7 0 9Zm270-9c-6-1-10 1-8 7 3-1 6-4 8-7Z" />
   <path
      d="M1320 118c2 0 5-1 6 1 57 3 106 56 106 113v880c-3 63 15 137-38 182-50 47-125 25-189 30H325c-63-4-138 16-184-36-49-48-29-123-33-186 1-293-1-586 1-879 4-57 58-106 115-105h670c-12-16-36-5-54-8H223c-66-1-125 58-123 124 0 328-1 657 1 985 4 66 68 120 134 113h987c40-2 81 4 120-3 67-12 108-83 98-149V255c5-50-15-100-59-126-48-31-110-15-166-19-17 3-41-8-53 8h158Z" />
   <path
      d="m1326 119-3 1c58 2 109 56 107 115 2 323 2 649 0 972 2 58-48 112-106 115H217c-58-2-110-56-107-115-2-323-2-649 0-972-3-61 53-117 114-115v-2c-57-1-111 48-115 105-2 293 0 586-1 879 4 63-16 138 33 186 46 52 121 32 184 36h880c64-5 139 17 189-30 53-45 35-119 38-182V232c0-57-49-110-106-113Z" />
   <path
      d="M1316 120h7l3-1c-1-2-4-1-6-1 0 2-4 0-4 2Zm-1091 0h652c-216-2-436-2-652 0Zm955 0h135c-44-2-91-2-135 0Z" />
   <path
      d="M110 235v972c-3 59 49 113 107 115h1107c58-3 108-57 106-115V235c2-59-49-113-107-115h-162v38c3 12 13 20 19 30-9-7-19-18-21-30H898c-3 12-13 22-21 30 5-9 13-17 18-26 3-14 0-28 1-42H224c-61-2-117 54-114 115m584-1v201c6 28-12 58-42 58H230c-18-1-36-13-40-31l-2-10V247c-4-30 25-54 54-48h411c20-1 38 16 41 35Z" />
   <path
      d="M1161 146v-26c-2 8-2 18 0 26Zm-220 2h182v-2H941v2Zm-43 8v-8c-2 2-1 6 0 8Zm0 0h236c8-2 28 6 25-8H898v8Z" />
   <path
      d="M1161 158v-10c-2 2-2 8 0 10Zm-263 0h261c-86-2-175-2-261 0ZM188 452l2-1v-1c-2-69-2-140 0-209-2-22 18-42 40-40 140-2 282-2 422 0h1v-2H242c-29-6-58 18-54 48v205Zm465-251c20-2 37 16 40 34l1-1c-3-19-21-36-41-35v2Z" />
   <path d="M230 201h422c-140-2-282-2-422 0Z" />
   <path
      d="M190 241v210l1 10c9 37 52 30 82 30h338c30 1 73 6 81-31 2-75 0-150 1-225-3-18-20-36-40-34H230c-22-2-42 18-40 40m16 231c-15-20-5-49-8-73V236c0-5 3-10 5-14l8-8 6-3c47-5 97-1 145-2h296c33 6 27 45 27 71v99c-3 30 7 65-7 92-22 22-58 8-87 12H294c-29-4-65 10-88-11Z" />
   <path
      d="M217 211v4c34-7 72-1 107-3h333c2-1-3-1-4-1 1-2 4 0 5-2H362c-48 1-98-3-145 2m435-1c-140 2-281 0-422 1 140-2 281 0 422-1Z" />
   <path
      d="M657 212c30 5 24 41 24 64v177c-2 31-39 27-62 26H265c-24 0-60 6-64-25-3 7 3 12 5 18 23 21 59 7 88 11h297c29-4 65 10 87-12 14-27 4-62 7-92v-99c0-26 6-65-27-71-1 2-4 0-5 2 1 0 6 0 4 1Zm-5-2c-141 1-282-1-422 1 141-1 282 1 422-1ZM56 235c2 323 2 649 0 972 2 8 1 16 2 24l1-1c-2-339-2-679 0-1018l-1-1c-1 8 0 16-2 24Zm155-21-8 8c-2 4-5 9-5 14 2 0 0 4 2 4 0-4 1-12 4-12 3-5 8-10 13-13v-4l-6 3Zm1270-2v7c2 1 1 4 1 6-1 335 1 671-1 1005l1 1c1-8 0-16 2-24-2-323-2-649 0-972-2-8-1-16-2-24l-1 1Z" />
   <path
      d="M217 215c-5 3-10 8-13 13-7 35-1 74-3 111v115c4 31 40 25 64 25h354c23 1 60 5 62-26V276c0-23 6-59-24-64H324c-35 2-73-4-107 3m456 237-1 3c-8 28-45 12-67 16H272c-22-2-60 10-63-21V241l1-5c11-28 51-11 75-16h367c31 3 19 41 21 63v169ZM203 222l8-8-8 8Zm1279 3c0-2 1-5-1-6 0 2-1 5 1 6Z" />
   <path
      d="M210 236h1c14-26 52-9 77-14h364v-2H285c-24 5-64-12-75 16Zm442-14c10-1 20 9 19 19 2 69 2 140 0 209v1l2 1V283c-2-22 10-60-21-63v2Z" />
   <path
      d="M211 236v165c4 22-12 59 15 68h426c9 1 18-6 19-15V241c1-10-9-20-19-19H288c-25 5-63-12-77 14m396 105c2 2 2 8 0 10-1 22-22 42-44 44H404c-43-5-107 18-126-33-12-27 10-63 40-65 74-2 148 0 222-1 30-5 66 12 67 45ZM198 236v163c3 24-7 53 8 73-2-6-8-11-5-18V339c2-37-4-76 3-111-3 0-4 8-4 12-2 0 0-4-2-4m2 5v210c-2-69-2-141 0-210ZM76 1208h2v-1c-2-323-2-649 0-972v-1h-2v974Z" />
   <path
      d="M693 235c-1 75 1 150-1 225-8 37-51 32-81 31H273c-30 0-73 7-82-30l-1 1c4 18 22 30 40 31 140-2 282-2 422 0 30 0 48-30 42-58V234l-1 1Zm769 0c2 323 2 649 0 972v1h2V234h-2v1ZM56 1207c2-323 2-649 0-972v972Zm22 0V235c-2 323-2 649 0 972Zm19 0c2-323 2-649 0-972v972Zm13 0V235c-2 323-2 649 0 972Zm1320 0c2-323 2-649 0-972v972Zm13 0V235c-2 323-2 649 0 972Z" />
   <path
      d="M1462 1207c2-323 2-649 0-972v972Zm22 0V235c-2 323-2 649 0 972ZM209 241c2 69 2 140 0 209 3 31 41 19 63 21h333c22-4 59 12 67-16l-1-1c-1 9-10 16-19 15-141 2-285 2-426 0-27-9-11-46-15-68V236h-1l-1 5Zm-19 209V241c-2 69-2 140 0 209Zm10-209c-2 69-2 141 0 210V241Z" />
   <path
      d="M209 450c2-69 2-140 0-209v209Zm462 0c2-69 2-140 0-209v209Zm-393-88 1-1c-1-4-3-7-2-11-2-2-2-7 0-9 2-39 46-48 79-43h122c37 4 80-10 111 11l6 6c25 28 4 76-32 79v1c22-2 43-22 44-44v-10c-1-33-37-50-67-45-74 1-148-1-222 1-30 2-52 38-40 65Z" />
   <path
      d="M277 341v9c-1 4 1 7 2 11 5 17 21 30 39 32h6c79 2 160 0 239 1 36-3 57-51 32-79l-6-6c-31-21-74-7-111-11H356c-33-5-77 4-79 43m288 44H317c-16-3-30-17-32-33 0-6-1-12 1-17 5-16 21-29 38-29h235c47-1 52 73 6 79Z" />
   <path
      d="M286 335c0 4 1 12-1 17 2 16 16 30 32 33 1-2 5-1 7-1-4-2-10 0-13-4-36-13-26-72 13-70v-4c-17 0-33 13-38 29Zm38-25h1c2-2 7-2 9 0h2c73-2 148-2 221 0h2c3-2 0-2 0-4H324v4m10-3c-2 2-6 1-9 1 2-2 6 0 9-1m223 0c-72 2-147 0-220 1 72-2 147 0 220-1Z" />
   <path
      d="M559 310c18-1 34 15 35 33 3 19-13 35-30 39 2 2-4 1-5 1 1 2 5 0 6 2 46-6 41-80-6-79 0 2 3 2 0 4Zm-225-3c-3 1-7-1-9 1 3 0 7 1 9-1Zm223 0c-73 1-148-1-220 1 73-1 148 1 220-1Z" />
   <path
      d="M325 310h9c-2-2-7-2-9 0Zm11 0h221c-73-2-148-2-221 0Zm259 5-6-6 6 6Z" />
   <path
      d="M311 380c41 5 83 1 125 2h128c17-4 33-20 30-39-1-18-17-34-35-33H324c-39-2-49 57-13 70m262-58c3 0 5 4 7 6 2 3 5 7 5 11l1 3c3 38-42 33-68 32-67-1-134 1-200-1-29-5-28-52 2-55h243l10 4Z" />
   <path
      d="M586 342c-3 2 1 6-2 8-6 33-48 19-73 22H319c-28-5-27-49 1-53v-1c-30 3-31 50-2 55 66 2 133 0 200 1 26 1 71 6 68-32Z" />
   <path d="M320 319h242l1-1H320v1Z" />
   <path d="M562 319c10 2 21 11 22 22l1-2c0-4-3-8-5-11l-7-6-10-4-1 1Z" />
   <path
      d="M584 350v-9c-1-11-12-20-22-22H320c-28 4-29 48-1 53h192c25-3 67 11 73-22Z" />
   <path
      d="M580 328c-2-2-4-6-7-6l7 6Zm-295 24c2-5 1-13 1-17-2 5-1 11-1 17Zm299-11v9c3-2-1-6 2-8l-1-3-1 2Zm-307 9v-9c-2 2-2 7 0 9Zm330 1c2-2 2-8 0-10v10Zm-329 11c19 51 83 28 126 33h159v-1c-79-1-160 1-239-1-1 1-5 2-6 0-18-2-34-15-39-32l-1 1Z" />
   <path
      d="M317 385h248c-1-2-5 0-6-2 1 0 7 1 5-1H436c-42-1-84 3-125-2 3 4 9 2 13 4-2 0-6-1-7 1m240-2c-76 2-155 0-232 1 76-2 155 0 232-1Z" />
   <path
      d="M557 383c-77 1-156-1-232 1 77-1 156 1 232-1Zm-233 10h-6c1 2 5 1 6 0Zm-136 59 2 10 1-1-1-10-2 1Zm483 2 1 1 1-3-2-1v3Zm-19 15H226c141 2 285 2 426 0Zm-422 24h422c-140-2-282-2-422 0Zm-31 861 2-1c-67-10-126-75-123-145h-2c-2 70 55 135 123 146Zm1140-1 2 1c68-11 125-76 123-146h-2c3 70-55 135-123 145Z" />
   <path
      d="M58 1231c9 72 71 134 143 143l1-1c-71-9-134-71-143-143l-1 1Zm1280 142 1 1c72-9 134-71 143-143l-1-1c-9 71-71 134-143 143Zm-1114-38c-2-2-5 0-8-1 2 2 5 0 8 1Zm1092 0c3 0 6 1 8-1-3 0-6-1-8 1Zm-1117 19c94 5 190 1 285 2h573c95-1 190 3 284-2l-2-1a118573 118573 0 0 1-1114 1c-7 1-16 0-24-1l-2 1Z" />
   <path
      d="M1315 1354H225c362 2 728 2 1090 0Zm-1114 20c8 1 16 0 24 2 362-2 728-2 1090 0 8-2 16-1 24-2l-1-1c-378 2-758 2-1136 0l-1 1Z" />
   <path d="M225 1376h1090c-362-2-728-2-1090 0Z" />
</svg>