<svg viewBox="0 0 1917 1335" xmlns="http://www.w3.org/2000/svg" fill="none" stroke="#FFF"
   stroke-width="2">
   <path
      d="M878 73v1c16-2 34-2 50 0v-1c-4-4-20-2-25-2s-21-2-25 2ZM220 435v1c14-2 26-16 39-21 13-6 25-16 38-22 13-7 25-16 38-22l38-22 38-22 38-22 38-22 38-22 38-22 38-22 38-22 38-22 38-22 38-22 38-22c13-7 25-15 39-21 15-6 32-10 48-12v-1c-64 6-118 53-173 82s-107 63-162 93l-161 94-162 93Z" />
   <path
      d="M878 74c-16 2-33 6-48 12-14 6-26 14-39 21l-38 22-38 22-38 22-38 22-38 22-38 22-38 22-38 22-38 22-38 22-38 22-38 22c-13 6-25 15-38 22-13 6-25 16-38 22-13 5-25 19-39 21-3 4-10 7-14 10-10 8-17 16-21 28s-2 29 5 40c8 10 15 17 26 23l31 19 31 18 31 18 31 18 32 18 31 18 31 18 32 18c10 7 21 12 31 18l31 18 31 18c11 6 21 13 32 18l31 18 31 18 31 18 32 18c10 6 20 13 31 18 10 6 20 13 31 18l31 19 31 18c11 6 21 11 31 18l33 16a247 247 0 0 0 87 12 190 190 0 0 0 76-22l31-19 31-18 31-18 32-18 31-18 31-18 31-18 32-18 31-18 31-18 31-18 32-18c10-7 21-12 31-18l31-18 32-18c10-6 20-13 31-18l31-18 31-18 31-19c11-6 18-12 26-23s9-25 7-38-15-19-20-30c-4-4-10-6-15-9l-14-8-27-17-14-8c-6-4-9-3-14-8-6-4-9-2-14-8-5-5-13 5-16 5l4 2c30 16 53 34 84 49 32 15 41 61 10 81-30 20-54 32-84 49l-84 49-84 49-84 49-85 48c-28 17-56 31-84 49s-55 29-84 49c-29 19-70 29-106 27s-68-18-97-36c-29-19-56-32-84-49l-84-49-85-48-84-49-84-49c-28-16-57-32-84-49-27-16-59-31-85-48-25-18-66-27-74-60-1-5-2-12-1-17 5-34 45-44 70-60 24-17 56-32 83-48l82-48 83-48c28-15 54-32 82-48 28-15 55-32 83-48 28-15 55-32 83-48 29-16 54-33 85-45 32-11 83-10 113 4 31 13 55 31 84 46l83 48 82 48 83 48c28 16 56 31 83 48 6 4 9 9 11 16l1 5v17c0 2 1 5-2 5 1-5-3-9-4-13-1 1-1 5-4 4-2 4-8 4-11 7 11 8 25 14 36 22 4-6 0-16 1-23v-25c-1 1-2 4-5 4 7-7 6-20-5-22 2 6 3 12 2 19-2-6 1-15-5-20-11-13-31-17-44-27-14-10-32-16-46-26l-46-26-45-27-46-26-45-27-46-26-46-26c-15-9-29-18-46-26-16-9-37-14-56-16-16-2-34-2-50 0Z" />
   <path
      d="M928 74c19 2 40 7 56 16 17 8 31 17 46 26l46 26 46 26 45 27 46 26 45 27 46 26c14 10 32 16 46 26 13 10 33 14 44 27l-2-4c-49-31-100-58-151-87-50-30-100-58-151-87S988 80 928 73v1Z" />
   <path
      d="m200 482 3 5c2-10 8-19 16-25-26 30 3 61 31 74 27 14 53 32 80 46l79 46 80 46 79 46 80 46 79 46 80 46 79 46c28 17 64 32 99 27l-22-2c-33 0-63-18-89-34l-79-45-78-46c-26-15-53-29-79-45l-79-45-78-46-79-45-78-46c-27-15-51-31-79-45s-49-47-20-74c-2 0-2-1-1-2-9 7-18 16-21 27 3-27 32-40 54-53l69-40 69-40 70-39 69-41 69-40 70-39 69-40 69-40c24-15 53-29 83-27h20c38 0 73 20 103 39l90 52 91 52c29 18 60 34 90 52 29 19 62 32 90 53l1-1c-27-17-55-32-83-48l-83-48-82-48-83-48c-29-15-53-33-84-46-30-14-81-15-113-4-31 12-56 29-85 45-28 16-55 33-83 48-28 16-55 33-83 48-28 16-54 33-82 48l-83 48-82 48c-27 16-59 31-83 48-25 16-65 26-70 60ZM894 84h20-20Z" />
   <path
      d="m224 456 15-9 30-18 31-17 30-18 31-18 31-17 30-18 31-18 30-18 31-17 31-18 30-18 31-17 30-18 31-18 31-17 30-18 31-18 31-17 30-18a149 149 0 0 1 73-24c14-1 32 1 45 3 12 3 24 8 35 14l31 17 30 18 31 17c10 6 20 13 31 18l30 18 30 18c11 5 21 12 31 18l31 17 30 18c10 6 22 11 31 18 10 6 22 10 31 17 9 6 22 11 30 18 9 7 25 9 31 18 15 1 12 21 17 30l1-12c-1-8-4-15-11-20-28-21-61-34-90-53-30-18-61-34-90-52l-91-52-90-52c-30-19-65-39-103-39h-20c-30-2-59 12-83 27l-69 40-69 40-70 39-69 40-69 41-70 39-69 40-69 40c-22 13-51 26-54 53 3-11 12-20 21-27Z" />
   <path
      d="M239 447v2l32-19 32-19 33-18 32-19 32-19 33-18 32-19 32-19 33-18 32-19 32-19 33-18 32-19 32-19 33-18 32-19 33-19 32-19a147 147 0 0 1 79-23c15 0 32 2 46 5 13 4 24 9 35 16l32 19 33 18 32 19 32 19 33 18 32 19 32 19 33 18 32 19 32 19c11 5 22 14 33 18 11 5 21 18 33 19h1c-6-9-22-11-31-18-8-7-21-12-30-18-9-7-21-11-31-17-9-7-21-12-31-18l-30-18-31-17c-10-6-20-13-31-18l-30-18-30-18c-11-5-21-12-31-18l-31-17-30-18-31-17c-11-6-23-11-35-14a164 164 0 0 0-118 21l-30 18-31 17-31 18-30 18-31 17-31 18-30 18-31 17-30 18-31 18-31 17-30 18-31 18-30 18-31 17-31 18-30 18-31 17-30 18Z" />
   <path
      d="M239 449c-5 3-10 5-14 9-29 27-8 60 20 74s52 30 79 45l78 46 79 45 78 46 79 45c26 16 53 30 79 45l78 46 79 45c26 16 56 34 89 34h23c33 0 63-18 90-34l78-46 80-45 78-46 79-46 79-45 79-46c27-14 51-32 79-45 28-14 54-45 27-74-6-6-14-8-19-14-13-8-29-14-41-23s-30-13-40-24h-9c-3 4-9 5-13 8l-14 8c-4 2-4 6-6 9-1-2 1-5 1-8-18-8-35-21-53-31s-37-20-53-31l-2-1-27-15c-7-6-21-9-26-16-8-1-16-6-24-5 7-2 18 0 24 4l13 8c4 2 11-6 15-7 6-3-1-12-1-17s-8-10-10-13c-12-1-22-14-33-19-11-4-22-13-33-18l-32-19-32-19-33-18-32-19-32-19-33-18-32-19-32-19-33-18-32-19c-11-7-22-12-35-16a177 177 0 0 0-90 2c-14 4-23 9-35 16l-32 19-33 19-32 19-33 18-32 19-32 19-33 18-32 19-32 19-33 18-32 19-32 19-33 18-32 19-32 19-33 18-32 19-32 19m675-321 34 19 35 19 33 20 35 19 33 20 34 20c11 7 24 11 34 19s26 11 34 20c14 8 11 23-1 30l-33 19-33 19-33 19c-12 6-21 14-33 19s-31 5-43-1l-33-19-33-19-33-19-33-19-33-19-33-19-33-19c-12-7-20-10-33-19-13-8-6-23 6-30l33-19 33-20c11-5 22-14 33-19 11-4 23-18 35-18 6-8 21-6 28-3Z" />
   <path d="M886 131h1c9-2 16-6 26-2l1-1c-7-3-22-5-28 3Z" />
   <path
      d="M887 131c-2 7-15 7-21 12-5 5-15 8-21 13l-21 12-22 12-20 13-22 12c-8 9 13 17 21 21l29 18 30 17 30 17 30 17 30 17 29 18 29 17c10 6 20 10 30 17 11 7 25 2 35-4 9-7 19-12 29-18l30-17 30-17 30-17c13-9-10-19-19-24l-35-19-34-20-34-20-34-20-34-20-35-19c-11-6-22-15-34-20-10-4-17 0-26 2m190 168c-5 6-11 9-18 11-4 1-8 3-13 3h-15c-5 0-9-2-13-3-15-5-29-15-43-23l-42-24-42-24c-12-9-33-13-37-29-6-22 28-30 45-29s38 13 53 23l49 27 48 28c14 8 44 21 28 40Z" />
   <path
      d="M913 129c12 5 23 14 34 20l35 19 34 20 34 20 34 20 34 20 35 19c9 5 32 15 19 24h2c3-2 6-5 3-9 1-1 2 1 3 1l5 2h1v-1c-8-9-24-12-34-20s-23-12-34-19l-34-20-33-20-35-19-33-20-35-19-34-19-1 1Zm-161 78 2 1 3-1 3-2 22-12 20-13 22-12 21-12c6-5 16-8 21-13 6-5 19-5 21-12h-1c-12 0-24 14-35 18-11 5-22 14-33 19l-33 20-33 19Zm102 3 1-1c2-8 3-15 11-19s15-6 24-7 20 0 28 3 12 7 19 11l20 11 20 11 19 11 19 12 20 11 19 11 19 12c8 5 5 14 4 21v2c16-19-14-32-28-40l-48-28-49-27c-15-10-36-22-53-23s-51 7-45 29Z" />
   <path
      d="M855 209c1 5 4 8 8 11-6-16 12-25 25-27 8-2 15 0 22 2 20 7 40 21 59 32l58 33c17 12 49 19 44 43 3-1 4-4 6-6 1-7 4-16-4-21l-19-12-19-11-20-11-19-12-19-11-20-11-20-11c-7-4-11-8-19-11s-19-4-28-3-16 3-24 7-9 11-11 19Z" />
   <path d="m888 193 1 1c8-2 15 0 22 3l-1-2c-7-2-14-4-22-2Z" />
   <path
      d="m855 209-1 1c4 16 25 20 37 29l42 24 42 24c14 8 28 18 43 23l1-1c-15-6-28-17-43-24-14-7-28-18-42-25l-43-24c-13-7-37-19-19-34 0 18 22 22 35 30 13 9 27 16 41 24l41 24c14 8 28 19 44 22l1-1c-12-1-22-10-32-15s-19-12-30-17l-30-18-30-17c-11-6-17-11-30-17-13-7-8-20 7-23l-1-1c-13 2-31 11-25 27-4-3-7-6-8-11Z" />
   <path
      d="M889 194c-15 3-20 16-7 23 13 6 19 11 30 17l30 17 30 18c11 5 20 12 30 17s20 14 32 15l16-2c6-1 7-6 11-8-1-15-22-19-34-27-11-8-26-15-38-23l-39-22c-13-7-26-16-39-22-7-3-14-5-22-3Z" />
   <path
      d="M911 197c13 6 26 15 39 22l39 22c12 8 27 15 38 23 12 8 33 12 34 27l1 1c2-2 0-6 0-8 12 6 8 22-4 25l1 1c7-2 13-5 18-11v-2c-2 2-3 5-6 6 5-24-27-31-44-43l-58-33c-19-11-39-25-59-32l1 2Z" />
   <path
      d="m1019 309 13 3h13l13-3c12-3 16-19 4-25 0 2 2 6 0 8 0 11-23 11-29 10-16-3-30-14-44-22l-41-24c-14-8-28-15-41-24-13-8-35-12-35-30-18 15 6 27 19 34l43 24c14 7 28 18 42 25 15 7 28 18 43 24Z" />
   <path
      d="M757 207c-5 10 15 15 21 20s19 10 26 15l26 15 26 15 26 15 26 15 26 15 26 15 26 15c9 5 18 9 26 15 8 5 23 11 32 5l26-15 26-15 26-15c8-6 17-10 26-15 8-6 19-10 26-16h-2l-30 17-30 17-30 17c-10 6-20 11-29 18-10 6-24 11-35 4-10-7-20-11-30-17l-29-17-29-18-30-17-30-17-30-17-30-17-29-18c-8-4-29-12-21-21l-3 2Z" />
   <path
      d="M1186 284v1c9 6 13 20 1 25 2-8-2-18-2-25l-5-2c13 7-4 21-12 24-9 3-19 12-28 16l-28 16-28 17c-9 5-19 9-28 16-9 6-25 10-36 6s-19-11-29-16l-28-16-28-16-28-17-28-16-28-16-28-17c-10-4-19-11-28-16l-28-16c-9-3-26-16-13-24l-2-1c-12 7-19 22-6 30 13 9 21 12 33 19l33 19 33 19 33 19 33 19 33 19 33 19 33 19c12 6 31 6 43 1s21-13 33-19l33-19 33-19 33-19c12-7 15-22 1-30m-436-74c-3 8-2 17-3 25-11-5-8-22 3-25m429 93c2-1 3-5 6-5-1 4 1 10-1 13-5 10-21 12-29 19-9 7-22 11-31 18-10 6-21 11-31 18s-21 10-32 17c-10 8-26 10-39 8s-23-10-33-16c-11-6-21-11-31-18-11-6-21-10-31-17l-31-18-31-18-31-18-31-18-31-18c-11-6-27-11-22-27 22 15 46 28 69 41l70 41c24 12 47 29 71 40 23 11 48 38 75 36s48-28 73-38 46-30 71-40Z" />
   <path
      d="M754 208c-13 8 4 21 13 24l28 16c9 5 18 12 28 16l28 17 28 16 28 16 28 17 28 16 28 16c10 5 18 12 29 16s27 0 36-6c9-7 19-11 28-16l28-17 28-16c9-4 19-13 28-16 8-3 25-17 12-24-1 0-2-2-3-1 3 4 0 7-3 9-7 6-18 10-26 16-9 5-18 9-26 15l-26 15-26 15-26 15c-9 6-24 0-32-5-8-6-17-10-26-15l-26-15-26-15-26-15-26-15-26-15-26-15-26-15c-7-5-20-10-26-15s-26-10-21-20l-3 1Z" />
   <path
      d="M750 210c-11 3-14 20-3 25 1-8 0-17 3-25Zm434 101v-12l-5 4c-25 10-46 30-71 40s-46 36-73 38-52-25-75-36c-24-11-47-28-71-40l-70-41c-23-13-47-26-69-41-5 16 11 21 22 27l31 18 31 18 31 18 31 18 31 18c10 7 20 11 31 17 10 7 20 12 31 18 10 6 20 14 33 16s29 0 39-8c11-7 22-10 32-17s21-12 31-18c9-7 22-11 31-18 8-7 24-9 29-19Zm2-26h-1c0 7 4 17 2 25 12-5 8-19-1-25Z" />
   <path
      d="m1034 301-1 1c6 1 29 1 29-10l-1-1c-4 2-5 7-11 8l-16 2Zm145 2 5-4v12c2-3 0-9 1-13-3 0-4 4-6 5Zm-161 7c4 1 8 3 13 3l1-1-13-3-1 1Zm27 2 1 1c5 0 9-2 13-3l-1-1-13 3Z" />
   <path
      d="M1031 313h15l-1-1h-13l-1 1Zm363 14c6 5 3 14 5 20 1-7 0-13-2-19 11 2 12 15 5 22 3 0 4-3 5-4v25c-1 7 3 17-1 23v1l2 1 1-1v-5c-2-15-1-33 0-48 0-12-8-14-17-19l2 4Zm-16 5c7 5 10 12 11 20l1-5c-2-7-5-12-11-16l-1 1Zm3 32v1c3 1 3-3 4-4 1 4 5 8 4 13 3 0 2-3 2-5l-1-3-2-2c-5-9-2-29-17-30h-1c2 3 10 8 10 13s7 14 1 17Z" />
   <path
      d="M1409 390v-48c-1 15-2 33 0 48Zm-20-38-1 12 2 2 1-14-1-5-1 5Zm1 14 1 3v-17l-1 14Zm-37-2v-1c-6-4-17-6-24-4 8-1 16 4 24 5Zm0 0c5 7 19 10 26 16l27 15v-1c-11-8-25-14-36-22 3-3 9-3 11-7v-1c-4 1-11 9-15 7l-13-8v1Zm55 32c16 11 35 21 53 31s35 23 53 31l1-1c-1-5-13-7-17-11-4-3-13-6-18-10s-12-7-18-10c-5-4-12-7-18-10l-17-11c-6-2-12-9-18-10l-1 1Zm151 37v2c3 0 11-10 16-5 5 6 8 4 14 8 5 5 8 4 14 8l14 8 27 17 14 8v-2c-16-9-32-20-49-28-17-9-32-27-50-16Z" />
   <path
      d="m1547 439-1 2h10l-3-3c3-4 7-1 10 0v-1l-4-2v-2l-12 6Zm-1345 7h4c4-3 11-6 14-10v-1l-18 11Z" />
   <path
      d="M1556 441c9 2 18 10 27 15l27 15c8 6 20 9 26 16l17 10c9 7 18 15 21 26-1-25-29-37-49-48l-62-37c-3-1-7-4-10 0l3 3Z" />
   <path
      d="m1563 438 62 37c20 11 48 23 49 48-3-11-12-19-21-26 2 2 2 4 2 5 27 29 1 60-27 74-28 13-52 31-79 45l-79 46-79 45-79 46-78 46-80 45-78 46c-27 16-57 34-90 34l3 1c36 3 68-24 97-40 30-15 59-34 88-50l87-50 87-51 88-50 86-51 88-50c27-16 74-37 54-76l-5-8 7 7c4 6 6 10 8 17s1 16-3 21c-4 6-7 10-12 14-5 5-9 7-15 10l-16 10-16 10-17 9c-5 4-10 6-16 9l-16 10-17 9-16 10-16 9-16 10-17 9-16 10-16 9-17 9-16 10-17 9c-5 4-10 6-16 9l-16 10-17 9-16 10-16 9-16 10-17 9-16 10c-6 3-11 5-16 9l-17 9-16 10-17 9-15 10-17 9-16 10-17 9c-5 4-10 6-16 9l-16 10-17 9-16 10-16 9a158 158 0 0 1-36 16l-22 4-23 2-24-2c-8 0-15-2-22-4a113 113 0 0 1-36-15l-17-9-16-10-17-9c-5-4-10-6-16-9l-16-10-17-9-16-10-16-9-16-10-17-9-16-10-16-9-17-9-16-10-17-9-15-10-17-9-16-10-17-9-16-9-16-10-17-9-16-10-16-9-17-9-16-10-16-10c-6-3-11-5-16-9l-17-9-16-10-17-9c-5-4-10-6-16-9l-16-10-17-9-16-10-16-9-16-10-17-9-16-10-16-9-16-10c-6-3-9-9-14-12s-5-15-9-17l-1 1c8 33 49 42 74 60 26 17 58 32 85 48 27 17 56 33 84 49l84 49 84 49 85 48 84 49c28 17 55 30 84 49 29 18 61 34 97 36s77-8 106-27c29-20 56-31 84-49s56-32 84-49l85-48 84-49 84-49 84-49c30-17 54-29 84-49 31-20 22-66-10-81-31-15-54-33-84-49v1Z" />
   <path
      d="M1519 456v1l14-8c4-3 10-4 13-8l1-2c-5 2-10 6-14 9-5 3-11 4-14 8Zm117 32v-1c-6-7-18-10-26-16l-27-15c-9-5-18-13-27-15h-1c10 11 28 15 40 24s28 15 41 23Z" />
   <path
      d="M164 502h2c0-22 15-41 33-52-34 28-13 74 20 91s61 36 93 54c32 17 62 36 93 54l94 54 93 54 93 54 94 54c32 19 61 33 93 54s79 30 119 28 74-21 106-41 63-35 94-54l94-53c31-19 61-37 93-54l93-55 94-53c32-18 60-37 93-54s55-64 20-92c16 10 31 27 33 46l1-3c-6-22-21-37-40-49l1 3c5 11 18 17 20 30s1 27-7 38-15 17-26 23l-31 19-31 18-31 18c-11 5-21 12-31 18l-32 18-31 18c-10 6-21 11-31 18l-32 18-31 18-31 18-31 18-32 18-31 18-31 18-31 18-32 18-31 18-31 18-31 19a190 190 0 0 1-123 20c-14-2-28-5-40-10l-33-16c-10-7-20-12-31-18l-31-18-31-19c-11-5-21-12-31-18-11-5-21-12-31-18l-32-18-31-18-31-18-31-18c-11-5-21-12-32-18l-31-18-31-18c-10-6-21-11-31-18l-32-18-31-18-31-18-32-18-31-18-31-18-31-18-31-19c-11-6-18-13-26-23-7-11-9-28-5-40s11-20 21-28h-4c-20 12-38 31-38 56Z" />
   <path d="M224 456c-1 1-1 2 1 2 4-4 9-6 14-9v-2l-15 9Z" />
   <path
      d="M166 502v9c7 42 55 55 86 75s70 39 103 59l102 60 102 59 103 59 103 59c35 21 66 37 102 59 35 23 90 30 133 27 43-4 80-25 116-46 35-22 67-39 102-59l102-60 103-59 102-59c33-20 72-39 103-59s82-35 83-79v-10c-2-19-17-36-33-46 35 28 13 75-20 92s-61 36-93 54l-94 53-93 55c-32 17-62 35-93 54l-94 53c-31 19-62 34-94 54s-66 39-106 41-87-7-119-28-61-35-93-54l-94-54-93-54-93-54-94-54c-31-18-61-37-93-54-32-18-60-37-93-54s-54-63-20-91c-18 11-33 30-33 52Zm1349-45-1 1c0 3-2 6-1 8 2-3 2-7 6-9v-1l-4 1Z" />
   <path
      d="m203 487-1 11c4 2 4 14 9 17s8 9 14 12l16 10 16 9 16 10 17 9 16 10 16 9 16 10 17 9 16 10c6 3 11 5 16 9l17 9 16 10 17 9c5 4 10 6 16 9l16 10 16 10 17 9 16 9 16 10 17 9 16 10 16 9 17 9 16 10 17 9 15 10 17 9 16 10 17 9 16 9 16 10 17 9 16 10 16 9 16 10 17 9 16 10c6 3 11 5 16 9l17 9 16 10 17 9a124 124 0 0 0 36 15c7 2 14 4 22 4l24 2 23-2 22-4a131 131 0 0 0 36-16l16-9 16-10 17-9 16-10c6-3 11-5 16-9l17-9 16-10 17-9 15-10 17-9 16-10 17-9c5-4 10-6 16-9l16-10 17-9 16-10 16-9 16-10 17-9 16-10c6-3 11-5 16-9l17-9 16-10 17-9 16-9 16-10 17-9 16-10 16-9 16-10 17-9 16-10c6-3 11-5 16-9l17-9 16-10 16-10c6-3 10-5 15-10 5-4 8-8 12-14 4-5 5-14 3-21s-4-11-8-17c-2-1-2-1-2 1 20 39-27 60-54 76l-88 50-86 51-88 50-87 51-87 50c-29 16-58 35-88 50-29 16-61 43-97 40l-4 1c-35 5-71-10-99-27l-79-46-80-46-79-46-80-46-79-46-80-46-79-46c-27-14-53-32-80-46-28-13-57-44-31-74-8 6-14 15-16 25Zm1455-8c5 3 11 5 15 9l-1-3-14-8v2Z" />
   <path
      d="m201 499 1-1 1-11-3-5c-1 5 0 12 1 17Zm1435-11c5 6 13 8 19 14 0-1 0-3-2-5l-17-10v1ZM164 506c0 3 2 7 1 10 2-1 1-3 1-5v-9h-2v4Zm1500 6c0-2 0-2 2-1l-7-7 5 8Z" />
   <path
      d="m873 1257-1-2c-8-10-24-13-34-21s-25-13-36-20l-35-20-35-21-35-20-36-20-35-21-35-20-36-20-34-21-36-20-35-20-35-21-36-20-35-20-35-21-35-20-35-21-35-20c-12-7-21-14-29-27-9-13-10-30-9-47V572c0-18-1-38 1-55 15 41 60 55 95 76 35 22 73 42 109 63 35 22 72 42 109 63l109 63 109 63 109 63c37 21 72 47 115 57 44 10 107 7 146-15l110-62 109-63 109-63 109-63c36-22 74-42 109-63 35-22 78-36 96-76l2-2c-1 99 1 200-1 298-1 46-56 61-88 83-33 21-74 41-109 62-34 21-73 42-108 63l-108 63-109 62-108 63 1 1 66-38 66-38 65-38 66-38 65-38 66-38 66-37 65-39 66-37c22-15 42-33 40-64s1-70 0-103V641c-1-34 2-69 0-103l-2 9c-1 44-52 59-83 79s-70 39-103 59l-102 59-103 59-102 60c-35 20-67 37-102 59-36 21-73 42-116 46-43 3-98-4-133-27-36-22-67-38-102-59l-103-59-103-59-102-59-102-60c-33-20-72-39-103-59s-79-33-86-75c0 2 1 4-1 5 1-3-1-7-1-10v209c0 33-1 73 1 103s26 43 48 57 44 25 66 38c22 14 44 25 66 38l66 38 66 39 66 38 66 38 66 39 66 38 66 38 66 38Z" />
   <path
      d="m872 1255 15 7a232 232 0 0 0 194-10l108-63 109-62 108-63c35-21 74-42 108-63 35-21 76-41 109-62 32-22 87-37 88-83V634c1-12-2-25 0-37s-3-26-1-37c-18 40-61 54-96 76-35 21-73 41-109 63l-109 63-109 63-109 63-110 62c-39 22-102 25-146 15-43-10-78-36-115-57l-109-63-109-63-109-63c-37-21-74-41-109-63-36-21-74-41-109-63-35-21-80-35-95-76-2 17-1 37-1 55v222c-1 17 0 34 9 47 8 13 17 20 29 27l35 20 35 21 35 20 35 21 35 20 36 20 35 21 35 20 36 20 34 21 36 20 35 20 35 21 36 20 35 20 35 21 35 20c11 7 26 12 36 20s26 11 34 21m-94-325c7 1 17 6 23 9 6 4 15 9 18 14 4 5 15 10 14 18s-12-2-16-8-12-8-19-13c-6-5-15-6-24-8s-11-14 4-12m4 21c8 1 14 6 21 9 7 4 10 10 17 14s8 18 0 13c-8-4-8-11-16-14s-11-11-21-10-15-14-1-12m-27 108v-50c0-15 8-34 25-31s25 10 37 20c11 11 16 20 22 34s4 37 4 53 4 36-7 49c-10 13-29 5-40-3a85 85 0 0 1-41-72m22 71c6 1 8 14 15 15s12 12 20 10 19 10 10 13-16-6-23-7-11-11-17-13-14-19-5-18m-6 14c5 1 8 12 14 14s10 10 16 12c7 2 13 9 21 7s15 10 6 12-15-4-22-6c-8-2-12-7-18-10s-9-11-14-14c-5-2-12-17-3-15Zm940-607v10l2-9-1-4-1 3Z" />
   <path
      d="M1710 560c-2 11 3 25 1 37s1 25 0 37v222c2-98 0-199 1-298l-2 2ZM985 931l4-1-3-1h-23l22 2Zm-207-1c-15-2-13 10-4 12s18 3 24 8c7 5 15 7 19 13s15 16 16 8-10-13-14-18c-3-5-12-10-18-14-6-3-16-8-23-9m-3 9c-4 3-10-6-5-8l5 8m36 11c-6-5-12-6-18-10-6-3-18 0-20-9 14 3 29 8 38 19m-8-3c-9 1-17-7-27-7 9-3 19 3 27 7m13 4c-5 2 1 4 4 8 4 3 8 7 10 11-6 2-9-5-14-9l-14-12c5-3 8 4 14 2Z" />
   <path
      d="m775 939-5-8c-5 2 1 11 5 8Zm36 11c-9-11-24-16-38-19 2 9 14 6 20 9 6 4 12 5 18 10Z" />
   <path
      d="M803 947c-8-4-18-10-27-7 10 0 18 8 27 7Zm13 4c-6 2-9-5-14-2l14 12c5 4 8 11 14 9-2-4-6-8-10-11-3-4-9-6-4-8Zm-34 0c-14-2-9 13 1 12s13 7 21 10 8 10 16 14c8 5 7-9 0-13s-10-10-17-14c-7-3-13-8-21-9m0 10c-4 4-10-6-5-8l5 8m27 6c3 0 6 3 6 6l-6-5c-9-7-23-6-29-15 11 1 21 7 29 14m-7 0c-6 2-11-6-18-5 5-2 15 0 18 5m0 1c8-1 8 4 15 9 7 4 4 11-1 3-6-7-10-5-14-12Z" />
   <path
      d="m782 961-5-8c-5 2 1 12 5 8Zm27 7v-1c-8-7-18-13-29-14 6 9 20 8 29 15Z" />
   <path
      d="M802 967c-3-5-13-7-18-5 7-1 12 7 18 5Zm0 1c4 7 8 5 14 12 5 8 8 1 1-3-7-5-7-10-15-9Zm7 0 6 5c0-3-3-6-6-6v1Zm-54 41 2-7c0-6 2-12 6-16-6 19-1 41-3 61s3 36 11 53c-10-6-12-22-14-33l-2-8a85 85 0 0 0 41 72c11 8 30 16 40 3 11-13 7-33 7-49s2-39-4-53-11-23-22-34a66 66 0 0 0-37-20c-17-3-25 16-25 31m28-29c17 2 28 15 40 28 11 13 18 31 18 50s3 45-1 65c-4 21-29 13-42 2a98 98 0 0 1-30-38c-7-16-8-43-7-61s-4-50 22-46m42 158c-22 2-46-17-55-37 9 5 14 17 23 23 10 6 20 13 32 14Z" />
   <path
      d="M783 980c-26-4-21 28-22 46s0 45 7 61c6 16 17 27 30 38s38 19 42-2c4-20 1-46 1-65s-7-37-18-50c-12-13-23-26-40-28m-15 95-1-1c-3-21 0-46 1-66 1-21 30-20 41-8s27 22 27 41c0 20 2 46 0 67-2 20-28 20-42 9a67 67 0 0 1-26-42Z" />
   <path
      d="M757 1002v65c2 11 4 27 14 33-8-17-13-33-11-53s-3-42 3-61c-4 4-6 10-6 16Z" />
   <path
      d="m767 1074 1-8c0-17-1-34 1-50 0-14 9-24 22-19 14 5 17 10 26 19 8 10 11 20 13 32v45c1 12-1 30-14 31s-21-9-29-16c-9-7-15-19-17-29l-2-4c3 18 13 31 26 42 14 11 40 11 42-9 2-21 0-47 0-67 0-19-16-29-27-41s-40-13-41 8c-1 20-4 45-1 66m67-24a276 276 0 0 1-3 66c-2-23 3-57-2-79-5-23-23-38-44-43 27-2 51 29 49 56Z" />
   <path
      d="M834 1100v-50c2-27-22-58-49-56 21 5 39 20 44 43 5 22 0 56 2 79 2-5 3-10 3-16Z" />
   <path
      d="M769 1016v50l1 13c2 10 8 22 17 29 8 7 16 17 29 16s15-19 14-31v-45c-2-12-5-22-13-32-9-9-12-14-26-19-13-5-22 5-22 19Zm-14-7v50l2 8v-8c-2-16-1-34 0-50v-7l-2 7Z" />
   <path
      d="M757 1059v-50c-1 16-2 34 0 50Zm11 7h1v-50c-2 16-1 33-1 50Zm66 34c2-16 2-34 0-50v50Zm-67-26 1 1 2 4-1-13h-1l-1 8Zm58 64c-12-1-22-8-32-14-9-6-14-18-23-23 9 20 33 39 55 37Zm-48-8c-9-1-1 16 5 18s10 12 17 13 14 10 23 7-2-15-10-13-13-9-20-10-9-14-15-15m25 28c-9-1-10-5-18-11-8-5-6-13 1-4 7 8 10 8 17 15m22 5c-12-1-24-8-33-17l16 9c6 2 15 0 17 8m-1 2c-6 2-17-1-21-6 7 0 14 5 21 6Z" />
   <path
      d="M802 1158c-7-7-10-7-17-15-7-9-9-1-1 4 8 6 9 10 18 11Zm-31-14c-9-2-2 13 3 15 5 3 8 11 14 14s10 8 18 10c7 2 13 8 22 6s2-14-6-12-14-5-21-7c-6-2-10-10-16-12s-9-13-14-14m-1 2c6 6-6 4 0 0m32 30c-5 3-13-4-18-8s-11-11-14-16c6-1 10 8 15 12 6 3 11 10 17 12m-13-12c-6-1-2-5 0 0m42 21c-15-2-30-9-41-20l19 11c7 3 20 0 22 9m-1 1c-2 4-12 1-16-1s-13-3-11-8c8 5 17 9 27 9Z" />
   <path
      d="M770 1146c-6 4 6 6 0 0Zm54 17c-2-8-11-6-17-8l-16-9c9 9 21 16 33 17Zm-22 13c-6-2-11-9-17-12-5-4-9-13-15-12 3 5 9 12 14 16s13 11 18 8Zm21-11c-7-1-14-6-21-6 4 5 15 8 21 6Z" />
   <path
      d="M789 1164c-2-5-6-1 0 0Zm42 21c-2-9-15-6-22-9l-19-11c11 11 26 18 41 20Z" />
   <path
      d="M830 1186c-10 0-19-4-27-9-2 5 7 6 11 8s14 5 16 1Zm227 78 1 2 24-13-1-1-24 12Zm-184-7 17 9-3-4-15-7 1 2Z" />
   <path
      d="M890 1266c49 27 118 25 168 0l-1-2c-53 20-118 21-170-2l3 4m150 6c-42 16-92 14-134 0 42 10 91 12 134 0Z" />
   <path d="M1040 1272c-43 12-92 10-134 0 42 14 92 16 134 0Z" />
</svg>